<svg version="1.1" id="Layer_1" xmlns="http://www.w3.org/2000/svg" xmlns:xlink="http://www.w3.org/1999/xlink" x="0px" y="0px"
	 width="100%" viewBox="0 0 627 398" enable-background="new 0 0 627 398" xml:space="preserve">
<path fill="#000000" opacity="1.000000" stroke="none" 
	d="
M359.000000,399.000000 
	C239.362381,399.000000 120.224754,399.000000 1.043566,399.000000 
	C1.043566,266.394714 1.043566,133.789429 1.043566,1.092067 
	C209.887634,1.092067 418.775330,1.092067 627.831543,1.092067 
	C627.831543,133.666504 627.831543,266.333221 627.831543,399.000000 
	C538.456055,399.000000 448.978027,399.000000 359.000000,399.000000 
M318.988770,169.442734 
	C318.660278,169.267502 318.331757,169.092270 318.002319,168.984772 
	C318.002319,168.984772 318.067505,168.966354 317.891052,168.299057 
	C314.245911,165.787659 310.600739,163.276245 306.657471,160.181808 
	C302.992798,157.366348 299.560028,154.163605 295.621643,151.805283 
	C281.679871,143.456985 267.695984,135.157745 253.436813,127.373489 
	C249.131943,125.023415 244.186417,122.256874 238.583176,124.852249 
	C243.724304,126.706398 248.688141,128.304184 253.441284,130.383499 
	C254.324402,130.769836 254.359680,133.094208 254.034119,134.348679 
	C253.055161,134.038788 252.076202,133.728882 250.803436,132.853699 
	C247.345596,131.027451 244.030853,128.043228 239.174774,131.679520 
	C238.415100,131.676910 237.655426,131.674301 236.418259,131.350693 
	C235.338882,132.655167 234.259506,133.959641 233.215103,135.833298 
	C233.207016,136.213257 233.198914,136.593201 232.587173,137.263931 
	C231.680923,138.008987 230.774689,138.754028 229.868454,139.499084 
	C229.378769,139.153015 228.889099,138.806946 228.399429,138.460876 
	C230.938095,134.029373 233.476776,129.597870 235.864929,125.429115 
	C230.818237,126.147690 227.885620,129.482986 227.959229,135.615753 
	C228.040649,142.398148 229.114685,149.201569 228.783768,155.948151 
	C228.301361,165.783722 226.861786,175.569016 226.007828,185.391174 
	C225.597046,190.115891 223.811325,193.953720 219.294098,197.047592 
	C213.682693,198.589661 209.805511,201.874176 207.828247,208.045181 
	C205.224472,211.671417 202.620682,215.297668 199.397278,219.205215 
	C198.144638,220.107559 196.891998,221.009888 196.048126,221.617767 
	C193.339294,220.522034 190.150223,219.232025 186.958038,218.048203 
	C186.958038,218.048203 187.063309,218.062454 186.782700,217.805649 
	C186.668732,217.575851 186.517975,217.373444 185.659912,216.826019 
	C184.783432,216.367432 183.936569,215.597717 183.024704,215.510895 
	C180.663086,215.286041 178.272827,215.362106 175.893997,215.318054 
	C177.278244,217.399338 178.263870,219.983383 180.127045,221.460632 
	C184.438385,224.878952 189.174561,227.761475 193.202118,230.496979 
	C192.757156,233.654297 192.398468,236.199539 191.388031,239.020996 
	C188.664429,239.187012 185.942932,239.419662 183.216797,239.505676 
	C176.783539,239.708649 170.348083,239.841827 163.999008,240.007675 
	C163.999008,240.007675 164.004349,239.922226 163.233566,239.962616 
	C162.516220,241.380569 160.843994,243.340530 161.277924,244.105011 
	C162.215729,245.757217 164.101501,247.657318 165.834641,247.923172 
	C170.823776,248.688538 175.929688,248.692581 181.910599,249.052231 
	C184.233459,249.044464 186.597397,248.779190 188.861450,249.140244 
	C189.952728,249.314255 191.486542,250.510056 191.738098,251.514206 
	C193.016754,256.618530 193.941162,261.811584 194.946823,267.748444 
	C196.612595,273.362305 198.993439,278.526093 203.982285,282.001251 
	C203.982285,282.001251 203.915009,282.008698 204.013718,282.587402 
	C204.347504,282.753510 204.681290,282.919617 205.004120,282.988525 
	C205.004120,282.988525 204.906738,282.997406 205.113693,283.416351 
	C205.278793,283.710358 205.528168,283.881897 206.389389,284.370728 
	C209.790756,287.211823 213.033264,290.274078 216.623138,292.852753 
	C227.565079,300.712555 240.284103,304.681610 253.203064,309.689392 
	C255.943100,310.493683 258.655396,311.413391 261.428619,312.079529 
	C268.407257,313.755798 275.353790,315.686066 282.423920,316.830261 
	C290.885437,318.199615 299.462006,318.858124 308.799347,319.957672 
	C312.714966,320.549988 316.630554,321.142303 321.494141,321.921600 
	C323.100891,321.902985 324.707672,321.884369 327.022919,322.173767 
	C330.152496,322.843506 333.283386,324.073669 336.411377,324.066315 
	C342.923126,324.050995 349.433319,323.380554 356.855804,323.003357 
	C359.294281,322.975800 361.732758,322.948212 365.037354,322.956879 
	C371.083313,322.650696 377.131744,322.383362 383.172852,322.000763 
	C384.199341,321.935760 385.194489,321.375946 387.034302,321.001587 
	C392.478638,320.048553 397.935822,319.159149 403.351227,318.063049 
	C404.037628,317.924133 404.504761,316.701965 405.805145,315.919434 
	C426.689789,309.130676 450.302307,288.228546 449.011108,276.675598 
	C446.739655,280.547272 444.861938,283.851379 442.885193,287.095093 
	C439.125244,293.264984 438.089447,293.968933 434.213654,292.791168 
	C435.846283,291.365448 437.726654,290.367126 438.654388,288.803589 
	C443.034515,281.421539 446.987793,273.793427 447.707489,265.033752 
	C447.870758,263.046356 447.128418,260.984528 446.755096,258.404602 
	C446.765503,258.035370 446.775909,257.666138 446.917297,256.401917 
	C446.242126,246.004425 442.339844,236.547531 437.744965,227.460831 
	C435.753815,223.523163 432.123749,220.414230 428.751007,216.483887 
	C427.528778,215.219193 426.306549,213.954498 424.922272,212.049988 
	C423.647278,209.516785 422.372253,206.983597 421.821747,204.509186 
	C423.202881,205.438126 424.584045,206.367081 426.068909,207.960754 
	C428.321045,210.034210 430.573181,212.107666 433.001221,214.854385 
	C433.437988,215.739395 433.747742,216.720245 434.331696,217.494202 
	C438.764252,223.369019 443.422119,229.063553 444.649536,236.724121 
	C444.893585,238.247314 446.560333,239.542542 447.844330,241.613495 
	C448.327393,243.200668 448.810486,244.787857 449.151459,247.246490 
	C449.541168,248.546127 449.930878,249.845779 450.163483,251.839066 
	C450.594910,252.417618 451.072327,253.526749 451.450836,253.493958 
	C456.079346,253.092911 460.753571,252.808060 465.278931,251.847595 
	C466.894928,251.504639 469.316803,249.425949 469.322083,248.131210 
	C469.334534,245.044464 466.831818,244.379578 463.113068,245.073517 
	C459.193848,245.073517 455.274658,245.073517 451.355438,245.073517 
	C451.828583,244.452057 452.301697,243.830597 452.774841,243.209137 
	C451.173523,242.285126 449.572205,241.361115 448.037415,239.700256 
	C447.346863,237.171204 446.928864,234.526505 445.914246,232.134918 
	C442.964478,225.182022 439.721649,218.367950 433.138153,213.093491 
	C431.426331,211.064270 429.714539,209.035049 427.905426,206.314987 
	C426.436371,205.080414 424.967316,203.845840 423.503784,202.615921 
	C426.162964,196.557846 425.981323,195.575058 420.726837,188.201218 
	C414.459961,176.194244 408.289124,164.126236 398.980591,153.449356 
	C398.656006,153.270584 398.331390,153.091812 397.999329,152.980225 
	C397.999329,152.980225 398.065033,152.964310 398.067352,152.251755 
	C393.391174,147.813110 388.714996,143.374481 384.012085,139.001129 
	C384.012085,139.001129 384.069031,138.959457 383.846375,138.227127 
	C381.358032,137.572205 378.869659,136.917267 375.549072,136.053040 
	C370.909393,137.954636 365.506500,138.929489 361.808716,141.974808 
	C356.246521,146.555573 351.877747,152.585526 346.285492,157.911545 
	C342.850311,161.623688 339.415161,165.335831 335.536957,169.538406 
	C333.025452,172.031555 330.513947,174.524689 327.343842,176.919113 
	C325.579071,175.798157 323.814301,174.677200 321.941650,172.841187 
	C321.620605,172.531006 321.299561,172.220810 320.979156,172.016525 
	C320.979156,172.016525 321.084991,172.020538 320.964142,171.448959 
	C320.635864,171.271027 320.307617,171.093094 319.982025,171.019897 
	C319.982025,171.019897 320.086761,171.022003 319.935150,170.470383 
	C319.616669,170.284439 319.298187,170.098480 318.980194,170.016937 
	C318.980194,170.016937 319.084503,170.021057 318.988770,169.442734 
M450.851349,268.834473 
	C450.275055,270.242401 449.698792,271.650330 449.006592,273.341492 
	C454.540161,273.341492 459.416931,273.341492 465.174164,273.341492 
	C464.049194,272.074921 463.725494,271.455933 463.215576,271.175507 
	C457.849213,268.224213 451.522675,266.140289 451.893951,258.176300 
	C451.898560,258.077484 451.359955,257.953369 450.277802,257.526978 
	C450.521362,261.256775 450.742523,264.643646 450.851349,268.834473 
z"/>
<path fill="#4C4C4C" opacity="1.000000" stroke="none" 
	d="
M236.895752,131.671677 
	C237.655426,131.674301 238.415100,131.676910 239.967804,131.724915 
	C244.206299,132.319885 247.651764,132.869431 251.097244,133.418991 
	C252.076202,133.728882 253.055161,134.038788 254.430847,134.559814 
	C254.827591,134.770966 254.945847,134.999344 255.031403,135.282593 
	C255.734329,135.860397 256.351715,136.154953 257.271729,136.589508 
	C258.004608,136.836868 258.434875,136.944214 258.976807,137.326874 
	C259.718903,137.919708 260.349243,138.237228 261.320923,138.709961 
	C273.794769,146.243866 285.927277,153.622589 298.119812,161.289825 
	C298.783112,161.956802 299.386444,162.335266 300.261963,162.926849 
	C303.045135,165.086746 305.556091,167.033539 308.126190,169.275589 
	C308.788849,170.001572 309.392303,170.432297 310.259277,171.073761 
	C315.365173,175.965302 320.055054,180.823746 325.157471,185.201431 
	C326.426086,186.289825 329.028473,185.823669 331.343018,185.986206 
	C334.800171,177.567154 343.325134,174.220123 348.461517,167.739853 
	C348.667847,167.479553 348.887238,167.226639 349.123291,166.993301 
	C356.412018,159.788818 363.680450,152.563522 371.008514,145.399261 
	C373.281403,143.177170 375.722687,143.231216 378.096436,145.365524 
	C379.331635,146.476120 380.531372,147.629822 381.811188,148.686508 
	C397.781036,161.872360 409.667694,177.910309 416.330444,197.674072 
	C416.799438,199.065262 418.312134,200.104568 419.368652,201.579651 
	C419.271088,202.371918 419.144409,202.891998 419.101379,203.842804 
	C418.820740,208.712631 420.768311,211.531281 425.084320,212.689789 
	C426.306549,213.954498 427.528778,215.219193 429.001648,217.049042 
	C435.726257,225.565079 439.789429,234.635849 442.268677,244.558533 
	C443.355774,248.909286 445.255524,253.057007 446.786255,257.296906 
	C446.775909,257.666138 446.765503,258.035370 446.586670,259.022736 
	C444.721100,266.517914 444.421265,274.189392 441.051941,280.115753 
	C432.598846,294.984100 418.990051,304.730927 402.942596,309.729309 
	C392.549988,312.966309 381.279144,314.097412 370.325989,314.639587 
	C356.773651,315.310364 343.137238,314.556641 329.547943,314.099121 
	C321.986969,313.844543 314.340973,313.536072 306.921448,312.204102 
	C292.073090,309.538391 277.328674,306.267365 262.592682,303.013763 
	C255.504608,301.448761 247.987518,300.441986 241.634476,297.251434 
	C231.653778,292.239014 222.155563,286.063232 213.064758,279.528992 
	C199.469772,269.757324 196.497131,255.103912 198.193100,239.720688 
	C198.860489,233.667267 202.839188,227.803482 205.993729,222.241135 
	C210.622055,214.080032 216.714478,207.223160 225.441681,202.966736 
	C229.256592,201.106110 233.105453,198.962280 232.770081,193.383545 
	C232.504990,188.973373 232.668762,184.435379 233.411072,180.085358 
	C235.870346,165.673843 234.691544,151.334595 233.190811,136.973160 
	C233.198914,136.593201 233.207016,136.213257 233.496262,135.415833 
	C234.816864,133.889481 235.856308,132.780579 236.895752,131.671677 
M313.419617,220.510895 
	C315.011688,221.692093 316.448608,223.330429 318.235718,223.936981 
	C320.395447,224.670029 323.470428,225.492889 325.011414,224.503876 
	C326.657349,223.447525 327.297089,220.384735 327.734894,218.076218 
	C327.942902,216.979431 326.945862,215.192642 325.950623,214.498108 
	C325.330017,214.065002 323.715698,215.243668 322.506653,215.420151 
	C320.854004,215.661392 318.917480,216.188202 317.552917,215.580887 
	C316.017151,214.897385 314.998810,213.072510 313.725861,211.773041 
	C310.472748,208.452133 307.354523,204.972198 303.848236,201.942520 
	C302.793213,201.030899 300.640533,201.389542 298.990692,201.166290 
	C299.151764,202.747192 298.934174,204.506500 299.572937,205.862335 
	C300.315338,207.438065 301.808411,208.660110 302.916687,210.631317 
	C302.594391,211.114731 302.272125,211.598145 301.268768,211.938950 
	C298.654541,210.243454 296.088409,208.467819 293.417847,206.866241 
	C281.512299,199.726273 268.435333,198.389557 254.939850,199.240921 
	C247.175323,199.730789 240.267548,206.869019 240.184814,214.815414 
	C240.046280,228.120117 248.336349,236.911514 257.444519,244.780701 
	C260.721527,247.611923 263.750122,249.296021 263.355804,254.451935 
	C263.038849,258.596039 264.434570,262.791107 269.657135,263.861908 
	C276.006439,265.163757 282.556610,263.247284 284.627411,258.796875 
	C285.930481,255.996246 287.405945,255.873474 290.094147,256.241241 
	C294.445007,256.836456 298.957703,257.342346 303.280212,256.839142 
	C314.705078,255.509140 321.892029,244.589493 318.397675,233.694778 
	C317.066742,229.545212 314.158813,225.901443 312.054993,221.428146 
	C312.376190,220.943451 312.697388,220.458755 313.419617,220.510895 
M411.332916,244.811432 
	C413.806854,239.450058 417.057434,234.293579 418.540894,228.670868 
	C420.090454,222.797592 415.029480,214.553696 409.470978,211.965683 
	C394.557404,205.021973 380.810089,208.094147 367.676941,216.897568 
	C359.356262,222.475052 355.481995,229.627228 358.148010,239.785309 
	C361.673492,253.218063 373.717865,262.797241 386.855316,257.266022 
	C395.060150,253.811523 402.823853,249.309174 411.332916,244.811432 
M364.535950,266.070801 
	C362.627899,264.215698 360.953705,261.969177 358.730865,260.640839 
	C357.208099,259.730835 354.921539,260.098816 352.976440,259.895477 
	C353.618286,261.556915 354.003754,263.386292 354.958221,264.842896 
	C356.660004,267.439941 358.965698,269.664062 360.487549,272.345673 
	C361.156006,273.523560 361.119690,275.954651 360.319763,276.889130 
	C359.393219,277.971527 357.057068,278.785004 355.714874,278.396271 
	C351.836243,277.272888 347.817505,275.995728 344.481110,273.817871 
	C341.173065,271.658539 339.151276,271.795624 337.055298,274.972076 
	C336.331573,276.068909 335.424866,277.073029 334.474457,277.987244 
	C331.008484,281.321350 326.655029,282.176910 322.475586,280.459015 
	C318.306000,278.745178 317.466522,274.622589 317.732574,270.331635 
	C317.869965,268.115662 317.756714,265.884186 317.756714,263.456573 
	C313.172302,263.476044 311.383209,265.741608 311.248871,269.330933 
	C311.007629,275.777618 312.281708,281.915924 318.546356,285.104767 
	C324.854034,288.315552 331.736206,288.426117 337.296265,283.733063 
	C340.664490,280.890076 343.202667,281.005798 346.594910,282.725891 
	C352.063629,285.498871 357.719604,285.902069 363.475037,283.577332 
	C368.000031,281.749573 370.228699,277.110016 368.472351,272.576477 
	C367.651031,270.456421 366.211670,268.575806 364.535950,266.070801 
M362.109589,208.592499 
	C358.554871,210.808731 354.947906,212.948074 351.485992,215.300873 
	C350.719604,215.821716 349.881470,217.270355 350.095032,217.989197 
	C350.570465,219.589676 351.431854,221.945587 352.606903,222.265839 
	C354.405243,222.756027 357.066772,222.414825 358.537811,221.319641 
	C362.500092,218.369751 366.296661,215.077103 369.590912,211.410156 
	C370.881226,209.973862 370.656952,207.176926 371.122498,204.999664 
	C369.057648,205.396774 366.952148,205.657364 364.946777,206.254318 
	C364.072906,206.514450 363.404358,207.464554 362.109589,208.592499 
z"/>
<path fill="#131313" opacity="1.000000" stroke="none" 
	d="
M232.888992,137.118546 
	C234.691544,151.334595 235.870346,165.673843 233.411072,180.085358 
	C232.668762,184.435379 232.504990,188.973373 232.770081,193.383545 
	C233.105453,198.962280 229.256592,201.106110 225.441681,202.966736 
	C216.714478,207.223160 210.622055,214.080032 205.993729,222.241135 
	C202.839188,227.803482 198.860489,233.667267 198.193100,239.720688 
	C196.497131,255.103912 199.469772,269.757324 213.064758,279.528992 
	C222.155563,286.063232 231.653778,292.239014 241.634476,297.251434 
	C247.987518,300.441986 255.504608,301.448761 262.592682,303.013763 
	C277.328674,306.267365 292.073090,309.538391 306.921448,312.204102 
	C314.340973,313.536072 321.986969,313.844543 329.547943,314.099121 
	C343.137238,314.556641 356.773651,315.310364 370.325989,314.639587 
	C381.279144,314.097412 392.549988,312.966309 402.942596,309.729309 
	C418.990051,304.730927 432.598846,294.984100 441.051941,280.115753 
	C444.421265,274.189392 444.721100,266.517914 446.610596,259.298920 
	C447.128418,260.984528 447.870758,263.046356 447.707489,265.033752 
	C446.987793,273.793427 443.034515,281.421539 438.654388,288.803589 
	C437.726654,290.367126 435.846283,291.365448 434.213654,292.791168 
	C438.089447,293.968933 439.125244,293.264984 442.885193,287.095093 
	C444.861938,283.851379 446.739655,280.547272 449.011108,276.675598 
	C450.302307,288.228546 426.689789,309.130676 405.028809,315.957428 
	C395.855286,317.414337 387.458099,318.833221 378.647949,320.243225 
	C373.547058,321.129791 368.859131,322.025208 364.171234,322.920654 
	C361.732758,322.948212 359.294281,322.975800 356.238159,322.584930 
	C345.851807,322.066254 336.083099,321.965973 326.314423,321.865723 
	C324.707672,321.884369 323.100891,321.902985 320.908813,321.516693 
	C316.213989,320.427490 312.104553,319.743195 307.624634,318.901306 
	C301.007385,317.855957 294.730927,317.135315 288.522064,316.033600 
	C282.268188,314.923828 276.093445,313.375488 269.861816,312.130585 
	C264.203552,311.000183 258.515381,310.019379 252.840378,308.972626 
	C240.284103,304.681610 227.565079,300.712555 216.623138,292.852753 
	C213.033264,290.274078 209.790756,287.211823 206.153549,283.803223 
	C205.580719,283.156281 205.243729,283.076843 204.906738,282.997406 
	C204.906738,282.997406 205.004120,282.988525 205.205780,282.597351 
	C204.909958,282.140350 204.412491,282.074524 203.915009,282.008698 
	C203.915009,282.008698 203.982285,282.001251 204.337769,281.810852 
	C202.662445,278.467712 200.652969,275.300964 198.592499,272.167725 
	C197.435059,270.407715 196.193359,268.703125 194.989639,266.973541 
	C193.941162,261.811584 193.016754,256.618530 191.738098,251.514206 
	C191.486542,250.510056 189.952728,249.314255 188.861450,249.140244 
	C186.597397,248.779190 184.233459,249.044464 181.436844,248.621826 
	C177.070084,247.709854 173.187225,247.109970 169.281631,246.775375 
	C163.867920,246.311569 162.722198,244.925430 164.004349,239.922226 
	C164.004349,239.922226 163.999008,240.007675 164.383118,240.185699 
	C172.293915,241.020203 179.846176,241.475357 187.335571,242.425858 
	C190.624969,242.843338 192.700134,242.849838 192.039764,238.744766 
	C192.398468,236.199539 192.757156,233.654297 193.202118,230.496979 
	C189.174561,227.761475 184.438385,224.878952 180.127045,221.460632 
	C178.263870,219.983383 177.278244,217.399338 175.893997,215.318054 
	C178.272827,215.362106 180.663086,215.286041 183.024704,215.510895 
	C183.936569,215.597717 184.783432,216.367432 186.073257,217.188782 
	C186.731842,217.661957 186.924088,217.832260 187.063309,218.062454 
	C187.063309,218.062454 186.958038,218.048203 186.971222,218.348083 
	C188.904068,219.947723 190.813400,221.263107 192.745483,222.544174 
	C197.470367,225.676987 198.772980,225.023788 200.016907,218.923904 
	C202.620682,215.297668 205.224472,211.671417 208.198486,207.583130 
	C212.392120,203.694748 216.215485,200.268433 220.038864,196.842117 
	C223.811325,193.953720 225.597046,190.115891 226.007828,185.391174 
	C226.861786,175.569016 228.301361,165.783722 228.783768,155.948151 
	C229.114685,149.201569 228.040649,142.398148 227.959229,135.615753 
	C227.885620,129.482986 230.818237,126.147690 235.864929,125.429115 
	C233.476776,129.597870 230.938095,134.029373 228.399429,138.460876 
	C228.889099,138.806946 229.378769,139.153015 229.868454,139.499084 
	C230.774689,138.754028 231.680923,138.008987 232.888992,137.118546 
z"/>
<path fill="#141414" opacity="1.000000" stroke="none" 
	d="
M419.339539,201.307480 
	C418.312134,200.104568 416.799438,199.065262 416.330444,197.674072 
	C409.667694,177.910309 397.781036,161.872360 381.811188,148.686508 
	C380.531372,147.629822 379.331635,146.476120 378.096436,145.365524 
	C375.722687,143.231216 373.281403,143.177170 371.008514,145.399261 
	C363.680450,152.563522 356.412018,159.788818 349.123291,166.993301 
	C348.887238,167.226639 348.667847,167.479553 348.461517,167.739853 
	C343.325134,174.220123 334.800171,177.567154 331.327698,185.595703 
	C329.992279,182.533325 328.997375,179.775589 328.002441,177.017822 
	C330.513947,174.524689 333.025452,172.031555 336.116455,169.384995 
	C340.131165,165.487518 343.566406,161.743439 347.001617,157.999374 
	C351.877747,152.585526 356.246521,146.555573 361.808716,141.974808 
	C365.506500,138.929489 370.909393,137.954636 376.179382,136.388275 
	C379.229462,137.468811 381.649231,138.214142 384.069031,138.959457 
	C384.069031,138.959457 384.012085,139.001129 383.692719,139.211456 
	C387.671692,143.854889 391.952454,148.305435 396.302795,152.686905 
	C396.640625,153.027176 397.466156,152.883209 398.065033,152.964294 
	C398.065033,152.964310 397.999329,152.980225 397.786560,153.294205 
	C398.053467,153.749359 398.533142,153.890518 399.012817,154.031677 
	C408.289124,164.126236 414.459961,176.194244 420.767273,188.923904 
	C421.450684,191.512253 422.276886,193.338028 422.693634,195.252914 
	C423.320099,198.131302 423.666870,201.076019 419.339539,201.307480 
z"/>
<path fill="#131313" opacity="1.000000" stroke="none" 
	d="
M327.673157,176.968475 
	C328.997375,179.775589 329.992279,182.533325 331.002502,185.681580 
	C329.028473,185.823669 326.426086,186.289825 325.157471,185.201431 
	C320.055054,180.823746 315.365173,175.965302 310.200867,170.783234 
	C309.274963,169.848083 308.670990,169.414200 308.067017,168.980316 
	C305.556091,167.033539 303.045135,165.086746 300.195557,162.655701 
	C299.257904,161.781418 298.658844,161.391373 298.059814,161.001312 
	C285.927277,153.622589 273.794769,146.243866 261.235046,138.447327 
	C260.160309,137.703537 259.512695,137.377548 258.865112,137.051559 
	C258.434875,136.944214 258.004608,136.836868 257.184082,136.346756 
	C256.177795,135.642441 255.561813,135.320892 254.945847,134.999344 
	C254.945847,134.999344 254.827591,134.770966 254.806915,134.647552 
	C254.359680,133.094208 254.324402,130.769836 253.441284,130.383499 
	C248.688141,128.304184 243.724304,126.706398 238.583176,124.852249 
	C244.186417,122.256874 249.131943,125.023415 253.436813,127.373489 
	C267.695984,135.157745 281.679871,143.456985 295.621643,151.805283 
	C299.560028,154.163605 302.992798,157.366348 306.741058,160.835632 
	C310.572266,163.981750 314.319885,166.474060 318.067505,168.966354 
	C318.067505,168.966354 318.002319,168.984772 317.789948,169.334930 
	C318.079895,169.797089 318.582184,169.909073 319.084503,170.021057 
	C319.084503,170.021057 318.980194,170.016937 318.883026,170.340576 
	C319.219482,170.783478 319.653137,170.902740 320.086761,171.022003 
	C320.086761,171.022003 319.982025,171.019897 319.867035,171.351074 
	C320.196350,171.795013 320.640686,171.907776 321.084991,172.020538 
	C321.084991,172.020538 320.979156,172.016525 320.891876,172.341415 
	C321.219574,172.962952 321.634552,173.259598 322.049530,173.556244 
	C323.814301,174.677200 325.579071,175.798157 327.673157,176.968475 
z"/>
<path fill="#BFBFBF" opacity="1.000000" stroke="none" 
	d="
M253.021729,309.330994 
	C258.515381,310.019379 264.203552,311.000183 269.861816,312.130585 
	C276.093445,313.375488 282.268188,314.923828 288.522064,316.033600 
	C294.730927,317.135315 301.007385,317.855957 307.619690,319.092682 
	C307.985199,319.441650 307.988739,319.824554 307.988739,319.824554 
	C299.462006,318.858124 290.885437,318.199615 282.423920,316.830261 
	C275.353790,315.686066 268.407257,313.755798 261.428619,312.079529 
	C258.655396,311.413391 255.943100,310.493683 253.021729,309.330994 
z"/>
<path fill="#131313" opacity="1.000000" stroke="none" 
	d="
M450.907532,268.432495 
	C450.742523,264.643646 450.521362,261.256775 450.277802,257.526978 
	C451.359955,257.953369 451.898560,258.077484 451.893951,258.176300 
	C451.522675,266.140289 457.849213,268.224213 463.215576,271.175507 
	C463.725494,271.455933 464.049194,272.074921 465.174164,273.341492 
	C459.416931,273.341492 454.540161,273.341492 449.006592,273.341492 
	C449.698792,271.650330 450.275055,270.242401 450.907532,268.432495 
z"/>
<path fill="#131313" opacity="1.000000" stroke="none" 
	d="
M446.851776,256.849426 
	C445.255524,253.057007 443.355774,248.909286 442.268677,244.558533 
	C439.789429,234.635849 435.726257,225.565079 429.245209,217.271545 
	C432.123749,220.414230 435.753815,223.523163 437.744965,227.460831 
	C442.339844,236.547531 446.242126,246.004425 446.851776,256.849426 
z"/>
<path fill="#131313" opacity="1.000000" stroke="none" 
	d="
M447.571045,240.942902 
	C446.560333,239.542542 444.893585,238.247314 444.649536,236.724121 
	C443.422119,229.063553 438.764252,223.369019 434.331696,217.494202 
	C433.747742,216.720245 433.437988,215.739395 433.025543,214.413086 
	C433.049866,213.971802 433.289154,213.785049 433.289154,213.785049 
	C439.721649,218.367950 442.964478,225.182022 445.914246,232.134918 
	C446.928864,234.526505 447.346863,237.171204 447.983582,240.257919 
	C447.929718,240.815582 447.571045,240.942902 447.571045,240.942902 
z"/>
<path fill="#A2A2A2" opacity="1.000000" stroke="none" 
	d="
M326.668671,322.019745 
	C336.083099,321.965973 345.851807,322.066254 355.782318,322.572906 
	C349.433319,323.380554 342.923126,324.050995 336.411377,324.066315 
	C333.283386,324.073669 330.152496,322.843506 326.668671,322.019745 
z"/>
<path fill="#B4B4B4" opacity="1.000000" stroke="none" 
	d="
M191.713898,238.882874 
	C192.700134,242.849838 190.624969,242.843338 187.335571,242.425858 
	C179.846176,241.475357 172.293915,241.020203 164.340363,240.183472 
	C170.348083,239.841827 176.783539,239.708649 183.216797,239.505676 
	C185.942932,239.419662 188.664429,239.187012 191.713898,238.882874 
z"/>
<path fill="#BFBFBF" opacity="1.000000" stroke="none" 
	d="
M464.037323,245.187759 
	C466.831818,244.379578 469.334534,245.044464 469.322083,248.131210 
	C469.316803,249.425949 466.894928,251.504639 465.278931,251.847595 
	C460.753571,252.808060 456.079346,253.092911 451.450836,253.493958 
	C451.072327,253.526749 450.594910,252.417618 450.653503,251.556686 
	C454.846466,250.948456 458.581299,250.815094 462.238190,250.210510 
	C463.911102,249.933914 465.430634,248.729492 466.967651,247.637177 
	C465.956177,246.614929 464.996735,245.901352 464.037323,245.187759 
z"/>
<path fill="#B4B4B4" opacity="1.000000" stroke="none" 
	d="
M463.575195,245.130646 
	C464.996735,245.901352 465.956177,246.614929 466.553406,247.578934 
	C462.985931,247.709457 459.772308,247.692825 456.577972,247.436096 
	C454.137177,247.239929 451.720795,246.739899 449.293549,246.375031 
	C448.810486,244.787857 448.327393,243.200668 447.707703,241.278198 
	C447.571045,240.942902 447.929718,240.815582 447.950317,240.626343 
	C449.572205,241.361115 451.173523,242.285126 452.774841,243.209137 
	C452.301697,243.830597 451.828583,244.452057 451.355438,245.073517 
	C455.274658,245.073517 459.193848,245.073517 463.575195,245.130646 
z"/>
<path fill="#C9C9C9" opacity="1.000000" stroke="none" 
	d="
M419.368652,201.579651 
	C423.666870,201.076019 423.320099,198.131302 422.693634,195.252914 
	C422.276886,193.338028 421.450684,191.512253 420.889038,189.241531 
	C425.981323,195.575058 426.162964,196.557846 423.503784,202.615921 
	C424.967316,203.845840 426.436371,205.080414 427.622375,206.754059 
	C426.881287,207.227417 426.423218,207.261719 425.965179,207.296021 
	C424.584045,206.367081 423.202881,205.438126 421.256042,204.263412 
	C420.132843,203.815781 419.575287,203.613922 419.017761,203.412079 
	C419.144409,202.891998 419.271088,202.371918 419.368652,201.579651 
z"/>
<path fill="#131313" opacity="1.000000" stroke="none" 
	d="
M449.222504,246.810760 
	C451.720795,246.739899 454.137177,247.239929 456.577972,247.436096 
	C459.772308,247.692825 462.985931,247.709457 466.605469,247.887604 
	C465.430634,248.729492 463.911102,249.933914 462.238190,250.210510 
	C458.581299,250.815094 454.846466,250.948456 450.732056,251.209869 
	C449.930878,249.845779 449.541168,248.546127 449.222504,246.810760 
z"/>
<path fill="#BFBFBF" opacity="1.000000" stroke="none" 
	d="
M163.618958,239.942413 
	C162.722198,244.925430 163.867920,246.311569 169.281631,246.775375 
	C173.187225,247.109970 177.070084,247.709854 180.976410,248.593567 
	C175.929688,248.692581 170.823776,248.688538 165.834641,247.923172 
	C164.101501,247.657318 162.215729,245.757217 161.277924,244.105011 
	C160.843994,243.340530 162.516220,241.380569 163.618958,239.942413 
z"/>
<path fill="#B4B4B4" opacity="1.000000" stroke="none" 
	d="
M379.060944,320.252136 
	C387.458099,318.833221 395.855286,317.414337 404.662964,315.988556 
	C404.504761,316.701965 404.037628,317.924133 403.351227,318.063049 
	C397.935822,319.159149 392.478638,320.048553 386.200256,320.969391 
	C383.264465,320.708832 381.162689,320.480469 379.060944,320.252136 
z"/>
<path fill="#C9C9C9" opacity="1.000000" stroke="none" 
	d="
M398.066193,152.608032 
	C397.466156,152.883209 396.640625,153.027176 396.302795,152.686905 
	C391.952454,148.305435 387.671692,143.854889 383.706085,139.178833 
	C388.714996,143.374481 393.391174,147.813110 398.066193,152.608032 
z"/>
<path fill="#C9C9C9" opacity="1.000000" stroke="none" 
	d="
M194.968231,267.360992 
	C196.193359,268.703125 197.435059,270.407715 198.592499,272.167725 
	C200.652969,275.300964 202.662445,278.467712 204.325256,281.842285 
	C198.993439,278.526093 196.612595,273.362305 194.968231,267.360992 
z"/>
<path fill="#BFBFBF" opacity="1.000000" stroke="none" 
	d="
M199.707092,219.064560 
	C198.772980,225.023788 197.470367,225.676987 192.745483,222.544174 
	C190.813400,221.263107 188.904068,219.947723 186.972778,218.294983 
	C190.150223,219.232025 193.339294,220.522034 196.048126,221.617767 
	C196.891998,221.009888 198.144638,220.107559 199.707092,219.064560 
z"/>
<path fill="#BFBFBF" opacity="1.000000" stroke="none" 
	d="
M346.643555,157.955460 
	C343.566406,161.743439 340.131165,165.487518 336.337952,169.139771 
	C339.415161,165.335831 342.850311,161.623688 346.643555,157.955460 
z"/>
<path fill="#C9C9C9" opacity="1.000000" stroke="none" 
	d="
M219.666473,196.944855 
	C216.215485,200.268433 212.392120,203.694748 208.546417,207.443924 
	C209.805511,201.874176 213.682693,198.589661 219.666473,196.944855 
z"/>
<path fill="#EBEBEB" opacity="1.000000" stroke="none" 
	d="
M378.647949,320.243225 
	C381.162689,320.480469 383.264465,320.708832 385.785156,320.990967 
	C385.194489,321.375946 384.199341,321.935760 383.172852,322.000763 
	C377.131744,322.383362 371.083313,322.650696 364.604309,322.938782 
	C368.859131,322.025208 373.547058,321.129791 378.647949,320.243225 
z"/>
<path fill="#BFBFBF" opacity="1.000000" stroke="none" 
	d="
M317.979279,168.632706 
	C314.319885,166.474060 310.572266,163.981750 306.890137,161.127151 
	C310.600739,163.276245 314.245911,165.787659 317.979279,168.632706 
z"/>
<path fill="#B4B4B4" opacity="1.000000" stroke="none" 
	d="
M308.394043,319.891113 
	C307.988739,319.824554 307.985199,319.441650 307.990143,319.250275 
	C312.104553,319.743195 316.213989,320.427490 320.434814,321.423187 
	C316.630554,321.142303 312.714966,320.549988 308.394043,319.891113 
z"/>
<path fill="#131313" opacity="1.000000" stroke="none" 
	d="
M426.017029,207.628387 
	C426.423218,207.261719 426.881287,207.227417 427.671021,207.099487 
	C429.714539,209.035049 431.426331,211.064270 433.213654,213.439270 
	C433.289154,213.785049 433.049866,213.971802 432.937622,214.076462 
	C430.573181,212.107666 428.321045,210.034210 426.017029,207.628387 
z"/>
<path fill="#131313" opacity="1.000000" stroke="none" 
	d="
M419.101379,203.842804 
	C419.575287,203.613922 420.132843,203.815781 420.893799,204.234009 
	C422.372253,206.983597 423.647278,209.516785 425.003296,212.369888 
	C420.768311,211.531281 418.820740,208.712631 419.101379,203.842804 
z"/>
<path fill="#131313" opacity="1.000000" stroke="none" 
	d="
M250.950348,133.136353 
	C247.651764,132.869431 244.206299,132.319885 240.339951,131.639496 
	C244.030853,128.043228 247.345596,131.027451 250.950348,133.136353 
z"/>
<path fill="#C9C9C9" opacity="1.000000" stroke="none" 
	d="
M383.957703,138.593292 
	C381.649231,138.214142 379.229462,137.468811 376.595490,136.492920 
	C378.869659,136.917267 381.358032,137.572205 383.957703,138.593292 
z"/>
<path fill="#131313" opacity="1.000000" stroke="none" 
	d="
M236.657013,131.511185 
	C235.856308,132.780579 234.816864,133.889481 233.478790,135.131256 
	C234.259506,133.959641 235.338882,132.655167 236.657013,131.511185 
z"/>
<path fill="#BFBFBF" opacity="1.000000" stroke="none" 
	d="
M321.024567,171.734741 
	C320.640686,171.907776 320.196350,171.795013 319.865723,171.298706 
	C320.307617,171.093094 320.635864,171.271027 321.024567,171.734741 
z"/>
<path fill="#BFBFBF" opacity="1.000000" stroke="none" 
	d="
M321.995605,173.198715 
	C321.634552,173.259598 321.219574,172.962952 320.891541,172.288467 
	C321.299561,172.220810 321.620605,172.531006 321.995605,173.198715 
z"/>
<path fill="#C9C9C9" opacity="1.000000" stroke="none" 
	d="
M203.964355,282.298035 
	C204.412491,282.074524 204.909958,282.140350 205.211273,282.645935 
	C204.681290,282.919617 204.347504,282.753510 203.964355,282.298035 
z"/>
<path fill="#C9C9C9" opacity="1.000000" stroke="none" 
	d="
M205.010223,283.206879 
	C205.243729,283.076843 205.580719,283.156281 205.889771,283.583313 
	C205.528168,283.881897 205.278793,283.710358 205.010223,283.206879 
z"/>
<path fill="#BFBFBF" opacity="1.000000" stroke="none" 
	d="
M320.010956,170.746185 
	C319.653137,170.902740 319.219482,170.783478 318.882782,170.288376 
	C319.298187,170.098480 319.616669,170.284439 320.010956,170.746185 
z"/>
<path fill="#BFBFBF" opacity="1.000000" stroke="none" 
	d="
M319.036621,169.731903 
	C318.582184,169.909073 318.079895,169.797089 317.790405,169.301071 
	C318.331757,169.092270 318.660278,169.267502 319.036621,169.731903 
z"/>
<path fill="#C9C9C9" opacity="1.000000" stroke="none" 
	d="
M398.996704,153.740509 
	C398.533142,153.890518 398.053467,153.749359 397.790283,153.260620 
	C398.331390,153.091812 398.656006,153.270584 398.996704,153.740509 
z"/>
<path fill="#BFBFBF" opacity="1.000000" stroke="none" 
	d="
M186.923004,217.934052 
	C186.924088,217.832260 186.731842,217.661957 186.408508,217.374985 
	C186.517975,217.373444 186.668732,217.575851 186.923004,217.934052 
z"/>
<path fill="#131313" opacity="1.000000" stroke="none" 
	d="
M311.969604,222.027161 
	C314.158813,225.901443 317.066742,229.545212 318.397675,233.694778 
	C321.892029,244.589493 314.705078,255.509140 303.280212,256.839142 
	C298.957703,257.342346 294.445007,256.836456 290.094147,256.241241 
	C287.405945,255.873474 285.930481,255.996246 284.627411,258.796875 
	C282.556610,263.247284 276.006439,265.163757 269.657135,263.861908 
	C264.434570,262.791107 263.038849,258.596039 263.355804,254.451935 
	C263.750122,249.296021 260.721527,247.611923 257.444519,244.780701 
	C248.336349,236.911514 240.046280,228.120117 240.184814,214.815414 
	C240.267548,206.869019 247.175323,199.730789 254.939850,199.240921 
	C268.435333,198.389557 281.512299,199.726273 293.417847,206.866241 
	C296.088409,208.467819 298.654541,210.243454 301.787109,212.289124 
	C305.526855,215.768600 308.748199,218.897873 311.969604,222.027161 
M304.570129,250.313293 
	C313.892212,246.086227 315.954407,240.547348 311.210754,231.627914 
	C309.582306,228.565903 307.628418,225.558380 305.294952,223.009644 
	C292.607849,209.152222 276.490356,203.890335 258.115082,205.217743 
	C255.060822,205.438370 251.620102,206.985703 249.283264,208.995712 
	C245.115372,212.580688 244.708801,219.997757 248.945389,225.452393 
	C255.179840,233.479279 262.308807,240.811386 269.056732,248.439453 
	C269.814178,249.109024 268.954102,250.670944 269.252136,251.966415 
	C269.747833,254.121124 270.498383,257.282471 272.015656,257.911469 
	C275.022308,259.157898 278.396301,258.186676 279.948578,254.687073 
	C282.709137,248.463486 282.957031,248.631180 289.704987,249.943176 
	C294.293884,250.835388 299.131866,250.446487 304.570129,250.313293 
z"/>
<path fill="#111111" opacity="1.000000" stroke="none" 
	d="
M411.059204,245.044250 
	C402.823853,249.309174 395.060150,253.811523 386.855316,257.266022 
	C373.717865,262.797241 361.673492,253.218063 358.148010,239.785309 
	C355.481995,229.627228 359.356262,222.475052 367.676941,216.897568 
	C380.810089,208.094147 394.557404,205.021973 409.470978,211.965683 
	C415.029480,214.553696 420.090454,222.797592 418.540894,228.670868 
	C417.057434,234.293579 413.806854,239.450058 411.059204,245.044250 
M405.913177,217.435364 
	C396.227386,212.297470 377.209656,215.066010 369.620026,222.869949 
	C365.293396,227.318756 361.725067,231.742279 364.002411,239.028351 
	C366.734802,247.770294 376.081787,255.112106 383.923615,252.175415 
	C391.609802,249.296997 399.248962,245.646606 405.958221,240.971024 
	C414.164795,235.251999 415.450317,224.623947 405.913177,217.435364 
z"/>
<path fill="#0A0A0A" opacity="1.000000" stroke="none" 
	d="
M364.794189,266.328735 
	C366.211670,268.575806 367.651031,270.456421 368.472351,272.576477 
	C370.228699,277.110016 368.000031,281.749573 363.475037,283.577332 
	C357.719604,285.902069 352.063629,285.498871 346.594910,282.725891 
	C343.202667,281.005798 340.664490,280.890076 337.296265,283.733063 
	C331.736206,288.426117 324.854034,288.315552 318.546356,285.104767 
	C312.281708,281.915924 311.007629,275.777618 311.248871,269.330933 
	C311.383209,265.741608 313.172302,263.476044 317.756714,263.456573 
	C317.756714,265.884186 317.869965,268.115662 317.732574,270.331635 
	C317.466522,274.622589 318.306000,278.745178 322.475586,280.459015 
	C326.655029,282.176910 331.008484,281.321350 334.474457,277.987244 
	C335.424866,277.073029 336.331573,276.068909 337.055298,274.972076 
	C339.151276,271.795624 341.173065,271.658539 344.481110,273.817871 
	C347.817505,275.995728 351.836243,277.272888 355.714874,278.396271 
	C357.057068,278.785004 359.393219,277.971527 360.319763,276.889130 
	C361.119690,275.954651 361.156006,273.523560 360.487549,272.345673 
	C358.965698,269.664062 356.660004,267.439941 354.958221,264.842896 
	C354.003754,263.386292 353.618286,261.556915 352.976440,259.895477 
	C354.921539,260.098816 357.208099,259.730835 358.730865,260.640839 
	C360.953705,261.969177 362.627899,264.215698 364.794189,266.328735 
z"/>
<path fill="#0A0A0A" opacity="1.000000" stroke="none" 
	d="
M302.975677,210.035660 
	C301.808411,208.660110 300.315338,207.438065 299.572937,205.862335 
	C298.934174,204.506500 299.151764,202.747192 298.990692,201.166290 
	C300.640533,201.389542 302.793213,201.030899 303.848236,201.942520 
	C307.354523,204.972198 310.472748,208.452133 313.725861,211.773041 
	C314.998810,213.072510 316.017151,214.897385 317.552917,215.580887 
	C318.917480,216.188202 320.854004,215.661392 322.506653,215.420151 
	C323.715698,215.243668 325.330017,214.065002 325.950623,214.498108 
	C326.945862,215.192642 327.942902,216.979431 327.734894,218.076218 
	C327.297089,220.384735 326.657349,223.447525 325.011414,224.503876 
	C323.470428,225.492889 320.395447,224.670029 318.235718,223.936981 
	C316.448608,223.330429 315.011688,221.692093 313.087402,219.937210 
	C309.495331,216.254242 306.235504,213.144943 302.975677,210.035660 
z"/>
<path fill="#0B0B0B" opacity="1.000000" stroke="none" 
	d="
M362.376099,208.346893 
	C363.404358,207.464554 364.072906,206.514450 364.946777,206.254318 
	C366.952148,205.657364 369.057648,205.396774 371.122498,204.999664 
	C370.656952,207.176926 370.881226,209.973862 369.590912,211.410156 
	C366.296661,215.077103 362.500092,218.369751 358.537811,221.319641 
	C357.066772,222.414825 354.405243,222.756027 352.606903,222.265839 
	C351.431854,221.945587 350.570465,219.589676 350.095032,217.989197 
	C349.881470,217.270355 350.719604,215.821716 351.485992,215.300873 
	C354.947906,212.948074 358.554871,210.808731 362.376099,208.346893 
z"/>
<path fill="#363636" opacity="1.000000" stroke="none" 
	d="
M302.946167,210.333496 
	C306.235504,213.144943 309.495331,216.254242 312.886902,219.668793 
	C312.697388,220.458755 312.376190,220.943451 312.012268,221.727661 
	C308.748199,218.897873 305.526855,215.768600 302.127686,212.360443 
	C302.272125,211.598145 302.594391,211.114731 302.946167,210.333496 
z"/>
<path fill="#141414" opacity="1.000000" stroke="none" 
	d="
M298.119812,161.289825 
	C298.658844,161.391373 299.257904,161.781418 299.923340,162.442596 
	C299.386444,162.335266 298.783112,161.956802 298.119812,161.289825 
z"/>
<path fill="#141414" opacity="1.000000" stroke="none" 
	d="
M308.126190,169.275574 
	C308.670990,169.414200 309.274963,169.848083 309.937317,170.572479 
	C309.392303,170.432297 308.788849,170.001572 308.126190,169.275574 
z"/>
<path fill="#141414" opacity="1.000000" stroke="none" 
	d="
M255.031403,135.282593 
	C255.561813,135.320892 256.177795,135.642441 256.881409,136.206741 
	C256.351715,136.154953 255.734329,135.860397 255.031403,135.282593 
z"/>
<path fill="#141414" opacity="1.000000" stroke="none" 
	d="
M258.976807,137.326874 
	C259.512695,137.377548 260.160309,137.703537 260.893738,138.292145 
	C260.349243,138.237228 259.718903,137.919708 258.976807,137.326874 
z"/>
<path fill="#F0F0F0" opacity="1.000000" stroke="none" 
	d="
M304.214294,250.471878 
	C299.131866,250.446487 294.293884,250.835388 289.704987,249.943176 
	C282.957031,248.631180 282.709137,248.463486 279.948578,254.687073 
	C278.396301,258.186676 275.022308,259.157898 272.015656,257.911469 
	C270.498383,257.282471 269.747833,254.121124 269.252136,251.966415 
	C268.954102,250.670944 269.814178,249.109024 269.056732,248.439453 
	C262.308807,240.811386 255.179840,233.479279 248.945389,225.452393 
	C244.708801,219.997757 245.115372,212.580688 249.283264,208.995712 
	C251.620102,206.985703 255.060822,205.438370 258.115082,205.217743 
	C276.490356,203.890335 292.607849,209.152222 305.294952,223.009644 
	C307.628418,225.558380 309.582306,228.565903 311.210754,231.627914 
	C315.954407,240.547348 313.892212,246.086227 304.214294,250.471878 
M286.857910,221.499756 
	C282.859680,219.956543 278.976196,217.826004 274.834564,217.016510 
	C269.475891,215.969177 264.735596,220.341431 265.307556,225.717819 
	C265.658478,229.016159 266.907776,232.556152 268.776886,235.287384 
	C273.014526,241.479645 279.538239,244.354736 286.689911,246.158691 
	C291.520355,247.377136 294.804169,245.239944 297.543762,241.901230 
	C300.243195,238.611435 298.771942,235.042557 296.734985,232.262619 
	C294.011139,228.545197 290.579865,225.346146 286.857910,221.499756 
z"/>
<path fill="#EBEBEB" opacity="1.000000" stroke="none" 
	d="
M406.202728,217.666000 
	C415.450317,224.623947 414.164795,235.251999 405.958221,240.971024 
	C399.248962,245.646606 391.609802,249.296997 383.923615,252.175415 
	C376.081787,255.112106 366.734802,247.770294 364.002411,239.028351 
	C361.725067,231.742279 365.293396,227.318756 369.620026,222.869949 
	C377.209656,215.066010 396.227386,212.297470 406.202728,217.666000 
M388.755371,243.509491 
	C393.333588,241.618179 397.036682,238.764435 399.172821,234.144882 
	C401.462250,229.193802 399.169952,224.925522 393.936249,223.635391 
	C386.850708,221.888763 380.491730,223.914368 374.400604,227.042252 
	C369.514282,229.551437 367.268890,235.517807 369.832825,238.511063 
	C373.761841,243.097931 382.442047,247.118790 388.755371,243.509491 
z"/>
<path fill="#0F0F0F" opacity="1.000000" stroke="none" 
	d="
M287.155151,221.712128 
	C290.579865,225.346146 294.011139,228.545197 296.734985,232.262619 
	C298.771942,235.042557 300.243195,238.611435 297.543762,241.901230 
	C294.804169,245.239944 291.520355,247.377136 286.689911,246.158691 
	C279.538239,244.354736 273.014526,241.479645 268.776886,235.287384 
	C266.907776,232.556152 265.658478,229.016159 265.307556,225.717819 
	C264.735596,220.341431 269.475891,215.969177 274.834564,217.016510 
	C278.976196,217.826004 282.859680,219.956543 287.155151,221.712128 
z"/>
<path fill="#191919" opacity="1.000000" stroke="none" 
	d="
M388.398438,243.664001 
	C382.442047,247.118790 373.761841,243.097931 369.832825,238.511063 
	C367.268890,235.517807 369.514282,229.551437 374.400604,227.042252 
	C380.491730,223.914368 386.850708,221.888763 393.936249,223.635391 
	C399.169952,224.925522 401.462250,229.193802 399.172821,234.144882 
	C397.036682,238.764435 393.333588,241.618179 388.398438,243.664001 
z"/>
</svg>